<svg width="32" height="33" viewBox="0 0 32 33" fill="none" xmlns="http://www.w3.org/2000/svg">
<mask id="mask0_16_7283" style="mask-type:alpha" maskUnits="userSpaceOnUse" x="0" y="0" width="32" height="33">
<path fill-rule="evenodd" clip-rule="evenodd" d="M0 0H32V32.0068H0V0Z" fill="white"/>
</mask>
<g mask="url(#mask0_16_7283)">
<path fill-rule="evenodd" clip-rule="evenodd" d="M32 16.0034C32 24.842 24.8356 32.0068 15.9979 32.0068C7.16027 32.0068 -0.00384521 24.842 -0.00384521 16.0034C-0.00384521 7.16481 7.16027 0 15.9979 0C24.8356 0 32 7.16481 32 16.0034Z" fill="#D8232A"/>
</g>
<path fill-rule="evenodd" clip-rule="evenodd" d="M16.4839 9.06801C17.562 9.06801 18.7619 9.18366 20.1564 9.42111L20.3654 9.45748L20.6709 7.35511L20.4936 7.30765C19.3317 7.00047 17.7583 6.8026 16.4839 6.8026C11.8696 6.8026 9.72002 8.7704 9.72002 12.9974V19.0924C9.72002 23.3194 11.8696 25.2872 16.4839 25.2872C17.7583 25.2872 19.3317 25.0893 20.4936 24.7822L20.6709 24.7331L20.3654 22.6307L20.1564 22.6671C18.7634 22.9046 17.5635 23.0217 16.4839 23.0217C13.2405 23.0217 12.2005 22.0845 12.2005 19.1636V12.9261C12.2005 10.0053 13.2405 9.06801 16.4839 9.06801Z" fill="#FFFFFE"/>
</svg>