<svg width="32" height="32" viewBox="0 0 32 32" fill="none" xmlns="http://www.w3.org/2000/svg">
<circle cx="16" cy="16" r="16" fill="#0170EF"/>
<path fill-rule="evenodd" clip-rule="evenodd" d="M17.2 11.2V6.4H10.6C9.60586 6.4 8.79999 7.20588 8.79999 8.2V23.8C8.79999 24.7938 9.60586 25.6 10.6 25.6H21.4C22.3941 25.6 23.2 24.7941 23.2 23.8V12.4H18.4337C17.7362 12.4 17.2 11.8638 17.2 11.2ZM18.4 6.4V11.2H23.2L18.4 6.4ZM13 22H19C19.33 22 19.6 21.73 19.6 21.4C19.6 21.0686 19.3313 20.8 19 20.8H13C12.67 20.8 12.4 21.07 12.4 21.4C12.4 21.73 12.67 22 13 22ZM19 19.6H13C12.67 19.6 12.4 19.33 12.4 19C12.4 18.67 12.67 18.4 13 18.4H19C19.3313 18.4 19.6 18.6686 19.6 19C19.6 19.33 19.33 19.6 19 19.6ZM19 17.2C19.33 17.2 19.6 16.93 19.6 16.6C19.6 16.27 19.33 16 19 16H13C12.67 16 12.4 16.27 12.4 16.6C12.4 16.93 12.67 17.2 13 17.2H19Z" fill="white"/>
<circle cx="20.8" cy="20.8" r="6.4" fill="#0170EF"/>
<path fill-rule="evenodd" clip-rule="evenodd" d="M26.9198 17.8637L25.8593 18.924L23.4762 16.524L24.5352 15.4637C24.8866 15.1121 25.4573 15.1121 25.8089 15.4637L26.9356 16.5905C27.2881 16.9421 27.2881 17.5119 26.9198 17.8637ZM17.959 24.794C17.9387 24.7981 17.9187 24.8 17.899 24.8C17.7154 24.8 17.568 24.6144 17.606 24.4246L18.0999 21.9552C18.1115 21.8971 18.1401 21.8438 18.182 21.8019L23.0511 16.9488L25.4511 19.3488L20.5817 24.2182C20.5398 24.26 20.4865 24.2886 20.4284 24.3002L17.959 24.794Z" fill="white"/>
</svg>